<svg width="22" height="22" viewBox="0 0 22 22" fill="none" xmlns="http://www.w3.org/2000/svg">
<g clip-path="url(#clip0_14_5)">
<path d="M11 0C4.93429 0 0 4.93429 0 11C0 17.0657 4.93429 22 11 22C17.0657 22 22 17.0657 22 11C22 4.93429 17.0657 0 11 0ZM11 20.625C5.6925 20.625 1.375 16.3075 1.375 11C1.375 5.6925 5.6925 1.375 11 1.375C16.3075 1.375 20.625 5.6925 20.625 11C20.625 16.3075 16.3075 20.625 11 20.625Z" fill="white"/>
<path d="M13.2717 10.8095C13.9808 10.1789 14.4375 9.27045 14.4375 8.25C14.4375 6.35446 12.8955 4.8125 11 4.8125C9.10446 4.8125 7.5625 6.35446 7.5625 8.25C7.5625 9.27143 8.0192 10.1799 8.7283 10.8095C6.82688 11.6767 5.5 13.5899 5.5 15.8125C5.5 16.1926 5.80741 16.5 6.1875 16.5C6.56759 16.5 6.875 16.1926 6.875 15.8125C6.875 13.5379 8.72536 11.6875 11 11.6875C13.2746 11.6875 15.125 13.5379 15.125 15.8125C15.125 16.1926 15.4324 16.5 15.8125 16.5C16.1926 16.5 16.5 16.1926 16.5 15.8125C16.5 13.5909 15.1731 11.6767 13.2717 10.8095ZM8.9375 8.25C8.9375 7.11268 9.86268 6.1875 11 6.1875C12.1373 6.1875 13.0625 7.11268 13.0625 8.25C13.0625 9.38732 12.1373 10.3125 11 10.3125C9.86268 10.3125 8.9375 9.38732 8.9375 8.25Z" fill="white"/>
</g>
<defs>
<clipPath id="clip0_14_5">
<rect width="22" height="22" fill="white"/>
</clipPath>
</defs>
</svg>
